<mxfile host="app.diagrams.net" modified="2024-04-28T03:00:32.793Z" agent="Mozilla/5.0 (Windows NT 10.0; Win64; x64) AppleWebKit/537.36 (KHTML, like Gecko) Chrome/124.0.0.0 Safari/537.36 Edg/124.0.0.0" etag="utGe_UrVpNGn1iRUiP39" version="24.3.0" type="device">
  <diagram name="第 1 页" id="U1HIuWKiXZf6dy7IhACE">
    <mxGraphModel dx="2213" dy="793" grid="1" gridSize="10" guides="1" tooltips="1" connect="1" arrows="1" fold="1" page="1" pageScale="1" pageWidth="827" pageHeight="1169" math="0" shadow="0">
      <root>
        <mxCell id="0" />
        <mxCell id="1" parent="0" />
        <mxCell id="7r6-NhCXB49uoo5uNJss-16" style="edgeStyle=orthogonalEdgeStyle;rounded=0;orthogonalLoop=1;jettySize=auto;html=1;exitX=0.5;exitY=1;exitDx=0;exitDy=0;entryX=0.5;entryY=0;entryDx=0;entryDy=0;" parent="1" source="7r6-NhCXB49uoo5uNJss-1" target="7r6-NhCXB49uoo5uNJss-4" edge="1">
          <mxGeometry relative="1" as="geometry" />
        </mxCell>
        <mxCell id="7r6-NhCXB49uoo5uNJss-1" value="&lt;font style=&quot;font-size: 16px;&quot;&gt;input&lt;/font&gt;" style="rounded=1;whiteSpace=wrap;html=1;fillColor=#f8cecc;strokeColor=#b85450;" parent="1" vertex="1">
          <mxGeometry x="354" y="170" width="120" height="60" as="geometry" />
        </mxCell>
        <mxCell id="7r6-NhCXB49uoo5uNJss-20" style="edgeStyle=orthogonalEdgeStyle;rounded=0;orthogonalLoop=1;jettySize=auto;html=1;exitX=0.5;exitY=1;exitDx=0;exitDy=0;entryX=0.5;entryY=0;entryDx=0;entryDy=0;" parent="1" source="7r6-NhCXB49uoo5uNJss-2" target="7r6-NhCXB49uoo5uNJss-14" edge="1">
          <mxGeometry relative="1" as="geometry" />
        </mxCell>
        <mxCell id="7r6-NhCXB49uoo5uNJss-2" value="&lt;font style=&quot;font-size: 16px;&quot;&gt;CBS&lt;/font&gt;" style="rounded=1;whiteSpace=wrap;html=1;fillColor=#dae8fc;strokeColor=#6c8ebf;" parent="1" vertex="1">
          <mxGeometry x="210" y="280" width="120" height="60" as="geometry" />
        </mxCell>
        <mxCell id="7r6-NhCXB49uoo5uNJss-24" style="edgeStyle=orthogonalEdgeStyle;rounded=0;orthogonalLoop=1;jettySize=auto;html=1;exitX=0.5;exitY=1;exitDx=0;exitDy=0;" parent="1" source="7r6-NhCXB49uoo5uNJss-3" target="7r6-NhCXB49uoo5uNJss-6" edge="1">
          <mxGeometry relative="1" as="geometry" />
        </mxCell>
        <mxCell id="7r6-NhCXB49uoo5uNJss-3" value="&lt;font style=&quot;font-size: 16px;&quot;&gt;cat&lt;/font&gt;" style="rounded=1;whiteSpace=wrap;html=1;fillColor=#fff2cc;strokeColor=#d6b656;" parent="1" vertex="1">
          <mxGeometry x="330" y="600" width="120" height="60" as="geometry" />
        </mxCell>
        <mxCell id="7r6-NhCXB49uoo5uNJss-22" style="edgeStyle=orthogonalEdgeStyle;rounded=0;orthogonalLoop=1;jettySize=auto;html=1;exitX=0.5;exitY=1;exitDx=0;exitDy=0;entryX=0.5;entryY=0;entryDx=0;entryDy=0;" parent="1" source="7r6-NhCXB49uoo5uNJss-4" target="7r6-NhCXB49uoo5uNJss-3" edge="1">
          <mxGeometry relative="1" as="geometry" />
        </mxCell>
        <mxCell id="7r6-NhCXB49uoo5uNJss-4" value="&lt;font style=&quot;font-size: 16px;&quot;&gt;Conv&lt;/font&gt;" style="rounded=1;whiteSpace=wrap;html=1;fillColor=#dae8fc;strokeColor=#6c8ebf;" parent="1" vertex="1">
          <mxGeometry x="510" y="280" width="120" height="60" as="geometry" />
        </mxCell>
        <mxCell id="7r6-NhCXB49uoo5uNJss-18" style="edgeStyle=orthogonalEdgeStyle;rounded=0;orthogonalLoop=1;jettySize=auto;html=1;exitX=0.5;exitY=1;exitDx=0;exitDy=0;" parent="1" source="7r6-NhCXB49uoo5uNJss-5" target="7r6-NhCXB49uoo5uNJss-3" edge="1">
          <mxGeometry relative="1" as="geometry" />
        </mxCell>
        <mxCell id="7r6-NhCXB49uoo5uNJss-5" value="&lt;span style=&quot;font-size: 16px;&quot;&gt;Conv&lt;/span&gt;" style="rounded=1;whiteSpace=wrap;html=1;fillColor=#dae8fc;strokeColor=#6c8ebf;" parent="1" vertex="1">
          <mxGeometry x="210" y="480" width="120" height="60" as="geometry" />
        </mxCell>
        <mxCell id="7r6-NhCXB49uoo5uNJss-6" value="&lt;font style=&quot;font-size: 16px;&quot;&gt;output&lt;/font&gt;" style="rounded=1;whiteSpace=wrap;html=1;fillColor=#dae8fc;strokeColor=#6c8ebf;" parent="1" vertex="1">
          <mxGeometry x="330" y="720" width="120" height="60" as="geometry" />
        </mxCell>
        <mxCell id="7r6-NhCXB49uoo5uNJss-7" style="edgeStyle=orthogonalEdgeStyle;rounded=0;orthogonalLoop=1;jettySize=auto;html=1;exitX=0;exitY=0.5;exitDx=0;exitDy=0;entryX=0.5;entryY=0;entryDx=0;entryDy=0;" parent="1" source="7r6-NhCXB49uoo5uNJss-10" target="7r6-NhCXB49uoo5uNJss-13" edge="1">
          <mxGeometry relative="1" as="geometry">
            <mxPoint x="-50" y="145" as="targetPoint" />
          </mxGeometry>
        </mxCell>
        <mxCell id="7r6-NhCXB49uoo5uNJss-8" style="edgeStyle=orthogonalEdgeStyle;rounded=0;orthogonalLoop=1;jettySize=auto;html=1;exitX=0.5;exitY=1;exitDx=0;exitDy=0;entryX=0.5;entryY=0;entryDx=0;entryDy=0;" parent="1" source="7r6-NhCXB49uoo5uNJss-10" target="7r6-NhCXB49uoo5uNJss-11" edge="1">
          <mxGeometry relative="1" as="geometry" />
        </mxCell>
        <mxCell id="7r6-NhCXB49uoo5uNJss-10" value="&lt;font style=&quot;font-size: 16px;&quot;&gt;CBS&lt;/font&gt;" style="rounded=1;whiteSpace=wrap;html=1;fillColor=#dae8fc;strokeColor=#6c8ebf;" parent="1" vertex="1">
          <mxGeometry x="50" y="280" width="120" height="60" as="geometry" />
        </mxCell>
        <mxCell id="7r6-NhCXB49uoo5uNJss-11" value="&lt;font style=&quot;font-size: 16px;&quot;&gt;CBS&lt;/font&gt;" style="rounded=1;whiteSpace=wrap;html=1;fillColor=#dae8fc;strokeColor=#6c8ebf;" parent="1" vertex="1">
          <mxGeometry x="50" y="410" width="120" height="60" as="geometry" />
        </mxCell>
        <mxCell id="7r6-NhCXB49uoo5uNJss-12" style="edgeStyle=orthogonalEdgeStyle;rounded=0;orthogonalLoop=1;jettySize=auto;html=1;exitX=0.5;exitY=1;exitDx=0;exitDy=0;entryX=0;entryY=0.5;entryDx=0;entryDy=0;" parent="1" source="7r6-NhCXB49uoo5uNJss-13" target="7r6-NhCXB49uoo5uNJss-11" edge="1">
          <mxGeometry relative="1" as="geometry" />
        </mxCell>
        <mxCell id="7r6-NhCXB49uoo5uNJss-13" value="&lt;font style=&quot;font-size: 16px;&quot;&gt;add&lt;/font&gt;" style="rounded=1;whiteSpace=wrap;html=1;fillColor=#fff2cc;strokeColor=#d6b656;" parent="1" vertex="1">
          <mxGeometry x="-130" y="350" width="120" height="60" as="geometry" />
        </mxCell>
        <mxCell id="7r6-NhCXB49uoo5uNJss-21" style="edgeStyle=orthogonalEdgeStyle;rounded=0;orthogonalLoop=1;jettySize=auto;html=1;exitX=0.5;exitY=1;exitDx=0;exitDy=0;" parent="1" source="7r6-NhCXB49uoo5uNJss-14" target="7r6-NhCXB49uoo5uNJss-5" edge="1">
          <mxGeometry relative="1" as="geometry" />
        </mxCell>
        <mxCell id="7r6-NhCXB49uoo5uNJss-14" value="&lt;font style=&quot;font-size: 16px;&quot;&gt;BottleNeck&lt;/font&gt;" style="rounded=1;whiteSpace=wrap;html=1;" parent="1" vertex="1">
          <mxGeometry x="210" y="380" width="120" height="60" as="geometry" />
        </mxCell>
        <mxCell id="7r6-NhCXB49uoo5uNJss-15" style="edgeStyle=orthogonalEdgeStyle;rounded=0;orthogonalLoop=1;jettySize=auto;html=1;exitX=0.5;exitY=1;exitDx=0;exitDy=0;entryX=0.442;entryY=0;entryDx=0;entryDy=0;entryPerimeter=0;" parent="1" source="7r6-NhCXB49uoo5uNJss-1" target="7r6-NhCXB49uoo5uNJss-2" edge="1">
          <mxGeometry relative="1" as="geometry" />
        </mxCell>
        <mxCell id="7r6-NhCXB49uoo5uNJss-23" value="&lt;font style=&quot;font-size: 16px;&quot;&gt;BottleNeck&lt;/font&gt;" style="rounded=1;whiteSpace=wrap;html=1;" parent="1" vertex="1">
          <mxGeometry x="50" y="170" width="120" height="60" as="geometry" />
        </mxCell>
        <mxCell id="w1K6X9uF596xE2Mo3NbU-1" style="edgeStyle=orthogonalEdgeStyle;rounded=0;orthogonalLoop=1;jettySize=auto;html=1;exitX=0.5;exitY=1;exitDx=0;exitDy=0;entryX=1;entryY=0.5;entryDx=0;entryDy=0;" edge="1" parent="1" source="w1K6X9uF596xE2Mo3NbU-2" target="w1K6X9uF596xE2Mo3NbU-9">
          <mxGeometry relative="1" as="geometry">
            <mxPoint x="910" y="420" as="targetPoint" />
          </mxGeometry>
        </mxCell>
        <mxCell id="w1K6X9uF596xE2Mo3NbU-2" value="&lt;font style=&quot;font-size: 16px;&quot;&gt;CBS&lt;/font&gt;" style="rounded=1;whiteSpace=wrap;html=1;fillColor=#dae8fc;strokeColor=#6c8ebf;" vertex="1" parent="1">
          <mxGeometry x="850" y="280" width="120" height="60" as="geometry" />
        </mxCell>
        <mxCell id="w1K6X9uF596xE2Mo3NbU-3" value="&lt;span style=&quot;font-size: 16px;&quot;&gt;output&lt;/span&gt;" style="rounded=1;whiteSpace=wrap;html=1;fillColor=#dae8fc;strokeColor=#6c8ebf;" vertex="1" parent="1">
          <mxGeometry x="760" y="640" width="120" height="60" as="geometry" />
        </mxCell>
        <mxCell id="w1K6X9uF596xE2Mo3NbU-4" style="edgeStyle=orthogonalEdgeStyle;rounded=0;orthogonalLoop=1;jettySize=auto;html=1;exitX=0.5;exitY=1;exitDx=0;exitDy=0;" edge="1" parent="1" source="w1K6X9uF596xE2Mo3NbU-6" target="w1K6X9uF596xE2Mo3NbU-2">
          <mxGeometry relative="1" as="geometry" />
        </mxCell>
        <mxCell id="w1K6X9uF596xE2Mo3NbU-5" style="edgeStyle=orthogonalEdgeStyle;rounded=0;orthogonalLoop=1;jettySize=auto;html=1;exitX=0.5;exitY=1;exitDx=0;exitDy=0;" edge="1" parent="1" source="w1K6X9uF596xE2Mo3NbU-6" target="w1K6X9uF596xE2Mo3NbU-20">
          <mxGeometry relative="1" as="geometry" />
        </mxCell>
        <mxCell id="w1K6X9uF596xE2Mo3NbU-6" value="&lt;font style=&quot;font-size: 16px;&quot;&gt;1,128,160,160&lt;/font&gt;" style="rounded=1;whiteSpace=wrap;html=1;fillColor=#f8cecc;strokeColor=#b85450;" vertex="1" parent="1">
          <mxGeometry x="750" y="170" width="120" height="60" as="geometry" />
        </mxCell>
        <mxCell id="w1K6X9uF596xE2Mo3NbU-7" style="edgeStyle=orthogonalEdgeStyle;rounded=0;orthogonalLoop=1;jettySize=auto;html=1;exitX=0.5;exitY=1;exitDx=0;exitDy=0;" edge="1" parent="1" source="w1K6X9uF596xE2Mo3NbU-9" target="w1K6X9uF596xE2Mo3NbU-3">
          <mxGeometry relative="1" as="geometry" />
        </mxCell>
        <mxCell id="w1K6X9uF596xE2Mo3NbU-8" value="&lt;font style=&quot;font-size: 16px;&quot;&gt;[1,128,160,160]&lt;/font&gt;" style="edgeLabel;html=1;align=center;verticalAlign=middle;resizable=0;points=[];" vertex="1" connectable="0" parent="w1K6X9uF596xE2Mo3NbU-7">
          <mxGeometry x="-0.35" y="-2" relative="1" as="geometry">
            <mxPoint x="2" y="7" as="offset" />
          </mxGeometry>
        </mxCell>
        <mxCell id="w1K6X9uF596xE2Mo3NbU-9" value="&lt;font style=&quot;font-size: 16px;&quot;&gt;cat&lt;/font&gt;" style="rounded=1;whiteSpace=wrap;html=1;fillColor=#fff2cc;strokeColor=#d6b656;" vertex="1" parent="1">
          <mxGeometry x="754" y="525" width="120" height="60" as="geometry" />
        </mxCell>
        <mxCell id="w1K6X9uF596xE2Mo3NbU-17" style="edgeStyle=orthogonalEdgeStyle;rounded=0;orthogonalLoop=1;jettySize=auto;html=1;exitX=0.5;exitY=1;exitDx=0;exitDy=0;entryX=0;entryY=0.5;entryDx=0;entryDy=0;" edge="1" parent="1" source="w1K6X9uF596xE2Mo3NbU-18" target="w1K6X9uF596xE2Mo3NbU-9">
          <mxGeometry relative="1" as="geometry" />
        </mxCell>
        <mxCell id="w1K6X9uF596xE2Mo3NbU-18" value="&lt;font style=&quot;font-size: 16px;&quot;&gt;BottleNeck*n&lt;/font&gt;" style="rounded=1;whiteSpace=wrap;html=1;" vertex="1" parent="1">
          <mxGeometry x="670" y="400" width="120" height="60" as="geometry" />
        </mxCell>
        <mxCell id="w1K6X9uF596xE2Mo3NbU-19" style="edgeStyle=orthogonalEdgeStyle;rounded=0;orthogonalLoop=1;jettySize=auto;html=1;exitX=0.5;exitY=1;exitDx=0;exitDy=0;entryX=0.5;entryY=0;entryDx=0;entryDy=0;" edge="1" parent="1" source="w1K6X9uF596xE2Mo3NbU-20" target="w1K6X9uF596xE2Mo3NbU-18">
          <mxGeometry relative="1" as="geometry" />
        </mxCell>
        <mxCell id="w1K6X9uF596xE2Mo3NbU-20" value="&lt;font style=&quot;font-size: 16px;&quot;&gt;CBS&lt;/font&gt;" style="rounded=1;whiteSpace=wrap;html=1;fillColor=#dae8fc;strokeColor=#6c8ebf;" vertex="1" parent="1">
          <mxGeometry x="670" y="280" width="120" height="60" as="geometry" />
        </mxCell>
      </root>
    </mxGraphModel>
  </diagram>
</mxfile>
